<svg width="80" height="80" viewBox="0 0 80 80" fill="none" xmlns="http://www.w3.org/2000/svg">
<g clip-path="url(#clip0_360_18)">
<path d="M40 80C50.6087 80 60.7828 75.7857 68.2843 68.2843C75.7857 60.7828 80 50.6087 80 40C80 29.3913 75.7857 19.2172 68.2843 11.7157C60.7828 4.21427 50.6087 0 40 0C29.3913 0 19.2172 4.21427 11.7157 11.7157C4.21427 19.2172 0 29.3913 0 40C0 50.6087 4.21427 60.7828 11.7157 68.2843C19.2172 75.7857 29.3913 80 40 80Z" fill="#5BE9B9"/>
<path d="M57.8571 18.5714C59.8326 18.5714 61.4286 20.1674 61.4286 22.1429V57.8571C61.4286 59.8326 59.8326 61.4286 57.8571 61.4286H22.1429C20.1674 61.4286 18.5714 59.8326 18.5714 57.8571V22.1429C18.5714 20.1674 20.1674 18.5714 22.1429 18.5714H57.8571ZM22.1429 15C18.2031 15 15 18.2031 15 22.1429V57.8571C15 61.7969 18.2031 65 22.1429 65H57.8571C61.7969 65 65 61.7969 65 57.8571V22.1429C65 18.2031 61.7969 15 57.8571 15H22.1429ZM24.3638 28.125C23.7165 28.8728 23.8058 30 24.5536 30.6473L35.4688 40L24.5536 49.3638C23.8058 50.0112 23.7165 51.1272 24.3638 51.8862C25.0112 52.6451 26.1384 52.7232 26.8862 52.0759L39.3862 41.3616C39.7768 41.0268 40.0112 40.5246 40.0112 40.0112C40.0112 39.4978 39.7879 38.9955 39.3862 38.6607L26.8862 27.9464C26.1384 27.2991 25.0112 27.3884 24.3638 28.1362V28.125ZM38.2143 50.7143C37.2321 50.7143 36.4286 51.5179 36.4286 52.5C36.4286 53.4821 37.2321 54.2857 38.2143 54.2857H56.0714C57.0536 54.2857 57.8571 53.4821 57.8571 52.5C57.8571 51.5179 57.0536 50.7143 56.0714 50.7143H38.2143Z" fill="black"/>
</g>
<defs>
<clipPath id="clip0_360_18">
<rect width="80" height="80" fill="white"/>
</clipPath>
</defs>
</svg>
