<svg width="24" height="24" viewBox="0 0 24 24" fill="none" xmlns="http://www.w3.org/2000/svg">
<g clip-path="url(#clip0_369_15)">
<path d="M12.0055 6.60977C8.59833 6.60977 5.85011 9.01445 5.85011 11.9957C5.85011 14.977 8.59833 17.3816 12.0055 17.3816C15.4126 17.3816 18.1608 14.977 18.1608 11.9957C18.1608 9.01445 15.4126 6.60977 12.0055 6.60977ZM12.0055 15.4973C9.80368 15.4973 8.00368 13.927 8.00368 11.9957C8.00368 10.0645 9.79833 8.49414 12.0055 8.49414C14.2126 8.49414 16.0073 10.0645 16.0073 11.9957C16.0073 13.927 14.2073 15.4973 12.0055 15.4973ZM19.8483 6.38945C19.8483 7.08789 19.2055 7.6457 18.4126 7.6457C17.6144 7.6457 16.9769 7.0832 16.9769 6.38945C16.9769 5.6957 17.6198 5.1332 18.4126 5.1332C19.2055 5.1332 19.8483 5.6957 19.8483 6.38945ZM23.9251 7.66445C23.834 5.98164 23.3948 4.49102 21.9858 3.26289C20.5823 2.03477 18.8787 1.65039 16.9555 1.56602C14.9733 1.46758 9.03225 1.46758 7.05011 1.56602C5.13225 1.6457 3.42868 2.03008 2.01975 3.2582C0.610826 4.48633 0.176897 5.97695 0.0804687 7.65977C-0.0320312 9.39414 -0.0320312 14.5926 0.0804687 16.327C0.17154 18.0098 0.610826 19.5004 2.01975 20.7285C3.42868 21.9566 5.1269 22.341 7.05011 22.4254C9.03225 22.5238 14.9733 22.5238 16.9555 22.4254C18.8787 22.3457 20.5823 21.9613 21.9858 20.7285C23.3894 19.5004 23.8287 18.0098 23.9251 16.327C24.0376 14.5926 24.0376 9.39883 23.9251 7.66445ZM21.3644 18.1879C20.9465 19.1066 20.1376 19.8145 19.0823 20.1848C17.5019 20.7332 13.7519 20.6066 12.0055 20.6066C10.259 20.6066 6.50368 20.7285 4.92868 20.1848C3.87868 19.8191 3.06975 19.1113 2.64654 18.1879C2.01975 16.8051 2.1644 13.5238 2.1644 11.9957C2.1644 10.4676 2.02511 7.18164 2.64654 5.80352C3.0644 4.88477 3.87333 4.17695 4.92868 3.80664C6.50904 3.2582 10.259 3.38477 12.0055 3.38477C13.7519 3.38477 17.5073 3.26289 19.0823 3.80664C20.1323 4.17227 20.9412 4.88008 21.3644 5.80352C21.9912 7.18633 21.8465 10.4676 21.8465 11.9957C21.8465 13.5238 21.9912 16.8098 21.3644 18.1879Z" fill="white"/>
</g>
<defs>
<clipPath id="clip0_369_15">
<rect width="24" height="24" fill="white"/>
</clipPath>
</defs>
</svg>
