<svg width="24" height="24" viewBox="0 0 24 24" fill="none" xmlns="http://www.w3.org/2000/svg">
<path d="M22.2857 1.5H1.70893C0.766071 1.5 0 2.17969 0 3.01406V20.9859C0 21.8203 0.766071 22.5 1.70893 22.5H22.2857C23.2286 22.5 24 21.8203 24 20.9859V3.01406C24 2.17969 23.2286 1.5 22.2857 1.5ZM7.25357 19.5H3.69643V9.47812H7.25893V19.5H7.25357ZM5.475 8.10938C4.33393 8.10938 3.4125 7.29844 3.4125 6.30469C3.4125 5.31094 4.33393 4.5 5.475 4.5C6.61071 4.5 7.5375 5.31094 7.5375 6.30469C7.5375 7.30312 6.61607 8.10938 5.475 8.10938ZM20.5875 19.5H17.0304V14.625C17.0304 13.4625 17.0036 11.9672 15.1821 11.9672C13.3286 11.9672 13.0446 13.2328 13.0446 14.5406V19.5H9.4875V9.47812H12.9V10.8469H12.9482C13.425 10.0594 14.5875 9.22969 16.3179 9.22969C19.9179 9.22969 20.5875 11.3062 20.5875 14.0062V19.5Z" fill="white"/>
</svg>
